# xmcd CD database file generated by freedbAccess_ocx
#
# Track frame offsets:
#       150
#       19730
#       39854
#       56884
#       71922
#       89108
#       103128
#       123648
#       143929
#       160723
#       178831
#       190369
#
# Disc length: 2755 seconds
#
# Revision: 0
# Processed by: cddbd v1.5.1PL0 Copyright (c) Steve Scherf et al.
# Submitted via: CDnGo 2.00
#
DISCID=b50ac10c
DTITLE=Goldentone - blood red earth
DYEAR=2002
DGENRE=Alt. Country
TTITLE0=sweetheart
TTITLE1=back to me
TTITLE2=hope for us
TTITLE3=beautiful
TTITLE4=goodbye
TTITLE5=lingering ache
TTITLE6=postcards
TTITLE7=second chance
TTITLE8=within your arms
TTITLE9=aeroplane
TTITLE10=melody
TTITLE11=temptation
EXTD=
EXTT0=
EXTT1=
EXTT2=
EXTT3=
EXTT4=
EXTT5=
EXTT6=
EXTT7=
EXTT8=
EXTT9=
EXTT10=
EXTT11=
PLAYORDER=
